<svg width="37" height="35" viewBox="0 0 37 35" fill="none" xmlns="http://www.w3.org/2000/svg">
<path d="M7.5 14C11.66 14 14 11.66 14 7.5C14 3.34 11.66 1 7.5 1C3.34 1 1 3.34 1 7.5C1 11.66 3.34 14 7.5 14Z" stroke="#80CBC4" stroke-width="1.5" stroke-linecap="round" stroke-linejoin="round"/>
<path d="M35.0011 13.7784C30.7878 10.1038 26.8778 6.19376 23.2031 1.98047" stroke="#EF9A9A" stroke-width="1.5" stroke-linecap="round" stroke-linejoin="round"/>
<path d="M23 13.7784C27.2133 10.1038 31.1233 6.19376 34.7979 1.98047" stroke="#EF9A9A" stroke-width="1.5" stroke-linecap="round" stroke-linejoin="round"/>
<path d="M1.0403 31.7318C2.27742 27.6285 5.12775 23.9353 6.8881 22.2487C7.23414 21.9171 7.76586 21.9171 8.1119 22.2487C9.87225 23.9353 12.7226 27.6285 13.9597 31.7318C14.0899 32.1635 13.8976 32.6232 13.4855 32.8066C12.3024 33.3333 10.1458 34 7.5 34C4.85425 34 2.69764 33.3333 1.51446 32.8066C1.10239 32.6232 0.910137 32.1635 1.0403 31.7318Z" stroke="#FFCC80" stroke-width="1.5" stroke-linecap="round" stroke-linejoin="round"/>
<path d="M35.997 28.3203H22" stroke="#CE93D8" stroke-width="1.5" stroke-linecap="round" stroke-linejoin="round"/>
<path d="M31.4219 24C33.2521 24.8638 35.0824 26.5913 35.9975 28.3187C35.0824 30.0463 33.2521 31.7737 31.4219 32.6375" stroke="#CE93D8" stroke-width="1.5" stroke-linecap="round" stroke-linejoin="round"/>
</svg>
