<svg width="14" height="14" viewBox="0 0 14 14" fill="none" xmlns="http://www.w3.org/2000/svg">
<path d="M9.92403 4.77134C8.56588 4.77134 7.46488 5.87235 7.46488 7.23051C7.46488 8.58866 8.56588 9.68966 9.92403 9.68966C10.1743 9.68966 10.3654 9.99056 10.182 10.1608C9.46897 10.8222 8.51415 11.2266 7.46488 11.2266C5.25788 11.2266 3.46875 9.4375 3.46875 7.23051C3.46875 5.02351 5.25788 3.23438 7.46488 3.23438C8.51415 3.23438 9.46897 3.63877 10.182 4.30023C10.3654 4.47045 10.1743 4.77134 9.92403 4.77134Z" stroke="black" stroke-linecap="round" stroke-linejoin="round"/>
<path d="M7.25 13.5C11.25 13.5 13.5 11.25 13.5 7.25C13.5 3.25 11.25 1 7.25 1C3.25 1 1 3.25 1 7.25C1 11.25 3.25 13.5 7.25 13.5Z" stroke="black" stroke-linecap="round" stroke-linejoin="round"/>
</svg>
