<svg width="44" height="44" viewBox="0 0 44 44" fill="none" xmlns="http://www.w3.org/2000/svg">
<path fill-rule="evenodd" clip-rule="evenodd" d="M21.6627 31.2583L39.9355 14.4112C42.9728 11.6109 42.7379 6.65369 39.4173 3.47496C36.175 0.371059 31.23 0.157771 28.3721 2.99853L10.5977 20.6657C10.5977 20.6657 14.5351 22.1912 17.3022 24.8401C20.0692 27.4891 21.6627 31.2583 21.6627 31.2583Z" stroke="black" stroke-width="2" stroke-linecap="round" stroke-linejoin="round"/>
<path d="M9.75107 34.2539L21.6536 31.2704C21.6536 31.2704 20.0636 27.4997 17.2991 24.8483C14.5345 22.1969 10.5986 20.668 10.5986 20.668L7.47183 32.015C7.12013 33.2912 8.4357 34.5835 9.75107 34.2539Z" stroke="black" stroke-width="2" stroke-linecap="round" stroke-linejoin="round"/>
<path d="M41.6923 42.0714C28.0871 41.1429 14.6051 41.1429 1 42.0714" stroke="black" stroke-width="2" stroke-linecap="round" stroke-linejoin="round"/>
</svg>
