<svg width="14" height="14" viewBox="0 0 14 14" fill="none" xmlns="http://www.w3.org/2000/svg">
<path d="M13.0241 6.42998C13.5498 6.81644 13.5498 7.60198 13.0241 7.98844C12.1543 8.62778 11.7118 9.70028 11.8749 10.7674C11.9737 11.4145 11.4145 11.9737 10.7674 11.8749C9.70028 11.7118 8.62778 12.1543 7.98844 13.0241C7.60198 13.5498 6.81644 13.5498 6.42998 13.0241C5.79064 12.1543 4.71814 11.7118 3.65102 11.8749C3.00392 11.9737 2.44467 11.4145 2.54354 10.7674C2.70657 9.70028 2.26413 8.62778 1.39432 7.98844C0.86856 7.60198 0.86856 6.81644 1.39432 6.42998C2.26413 5.79064 2.70657 4.71814 2.54354 3.65102C2.44467 3.00392 3.00392 2.44467 3.65102 2.54354C4.71814 2.70657 5.79064 2.26413 6.42998 1.39432C6.81644 0.86856 7.60198 0.86856 7.98844 1.39432C8.62778 2.26413 9.70028 2.70657 10.7674 2.54354C11.4145 2.44467 11.9737 3.00392 11.8749 3.65102C11.7118 4.71814 12.1543 5.79064 13.0241 6.42998Z" stroke="black" stroke-linecap="round" stroke-linejoin="round"/>
<path d="M7.20875 9.74951C8.83484 9.74951 9.74952 8.83483 9.74952 7.20874C9.74952 5.58265 8.83484 4.66797 7.20875 4.66797C5.58265 4.66797 4.66797 5.58265 4.66797 7.20874C4.66797 8.83483 5.58265 9.74951 7.20875 9.74951Z" stroke="black" stroke-linecap="round" stroke-linejoin="round"/>
</svg>
