<svg width="15" height="15" viewBox="0 0 15 15" fill="none" xmlns="http://www.w3.org/2000/svg">
<path d="M12.5434 5.79577C12.5137 4.9008 12.4555 4.00231 12.3688 3.09352C12.2772 2.13366 11.5254 1.35571 10.57 1.2258C8.35591 0.924734 6.26931 0.924734 4.05523 1.2258C3.09981 1.35571 2.34803 2.13366 2.25643 3.09352C1.99265 5.85767 1.99265 8.52659 2.25643 11.2907C2.34803 12.2506 3.09981 13.0285 4.05523 13.1585C4.71907 13.2487 5.37145 13.3119 6.01925 13.3481" stroke="black" stroke-width="1.5" stroke-linecap="round" stroke-linejoin="round"/>
<path d="M1 4.29955C1.69313 4.00952 2.30687 4.00952 3 4.29955" stroke="black" stroke-width="1.5" stroke-linecap="round" stroke-linejoin="round"/>
<path d="M1 10.2996C1.69313 10.0095 2.30687 10.0095 3 10.2996" stroke="black" stroke-width="1.5" stroke-linecap="round" stroke-linejoin="round"/>
<path d="M1 7.22143C1.69313 6.9314 2.30687 6.9314 3 7.22143" stroke="black" stroke-width="1.5" stroke-linecap="round" stroke-linejoin="round"/>
<path d="M11.6028 8.39686L8.73685 11.6488L8.34422 13.4954C8.28104 13.7926 8.59077 14.0737 8.88083 13.9825L10.7185 13.4048L13.6788 10.2899C14.1704 9.77261 14.0846 8.90732 13.4895 8.38093C12.9083 7.86687 12.0636 7.874 11.6028 8.39686Z" stroke="black" stroke-width="1.5" stroke-linecap="round" stroke-linejoin="round"/>
</svg>
