<svg width="14" height="14" viewBox="0 0 14 14" fill="none" xmlns="http://www.w3.org/2000/svg">
<path d="M2.10476 12.3785C1.60481 11.8773 1.28941 11.2215 1.21 10.518C1.096 9.455 1 8.364 1 7.25C1 6.136 1.096 5.044 1.21 3.982C1.28941 3.27853 1.60481 2.62271 2.10476 2.12149C2.60472 1.62026 3.25973 1.3032 3.963 1.222C5.032 1.102 6.13 1 7.25 1C8.37 1 9.467 1.103 10.537 1.221C11.2403 1.3022 11.8953 1.61926 12.3952 2.12049C12.8952 2.62171 13.2106 3.27753 13.29 3.981C13.404 5.045 13.5 6.137 13.5 7.25C13.5 7.64155 13.4881 8.03049 13.4678 8.41649C12.9617 11.5404 9.97556 13.2362 7.70603 13.4945C7.55444 13.4981 7.40242 13.5 7.25 13.5C6.13 13.5 5.033 13.398 3.963 13.278C3.25973 13.1968 2.60472 12.8797 2.10476 12.3785Z" stroke="black" stroke-linecap="round" stroke-linejoin="round"/>
<path d="M13.4668 8.41797C12.9571 11.5644 9.9316 13.2625 7.65625 13.5018C8.53099 12.3362 9.1445 11.1492 9.40619 9.34355C9.48141 8.82459 9.91118 8.41797 10.4356 8.41797H13.4668Z" stroke="black" stroke-linecap="round" stroke-linejoin="round"/>
</svg>
