<svg width="13" height="14" viewBox="0 0 13 14" fill="none" xmlns="http://www.w3.org/2000/svg">
<g clip-path="url(#clip0_1194_7)">
<path fill-rule="evenodd" clip-rule="evenodd" d="M6.5 3.36756e-09C5.018 3.36756e-09 3.81983 0.0441538 2.57942 0.129231C1.944 0.172135 1.34595 0.443231 0.896699 0.892C0.447451 1.34077 0.177656 1.9366 0.13759 2.56846C0.0452487 4.04385 -0.000634775 5.52175 6.63201e-06 7C6.63201e-06 8.51846 0.0476734 10.0003 0.13759 11.4315C0.177656 12.0634 0.447451 12.6592 0.896699 13.108C1.34595 13.5568 1.944 13.8279 2.57942 13.8708C3.81983 13.9558 5.01692 14 6.5 14C7.982 14 9.18017 13.9558 10.4206 13.8708C11.056 13.8279 11.6541 13.5568 12.1033 13.108C12.5526 12.6592 12.8224 12.0634 12.8624 11.4315C12.9934 9.3486 13.0317 7.26092 12.9772 5.17462C12.9649 4.64438 12.7895 4.13062 12.4746 3.70246C11.4952 2.37677 10.7022 1.53677 9.40658 0.542769C8.96967 0.209975 8.43702 0.0250438 7.88667 0.0150769C7.42452 0.0050212 6.96228 -4.74934e-06 6.5 3.36756e-09Z" fill="#EDE4FF"/>
<path fill-rule="evenodd" clip-rule="evenodd" d="M5.43792 4.121C5.50979 4.06614 5.56985 3.9975 5.61455 3.91916C5.65925 3.84081 5.68765 3.75433 5.69812 3.66486C5.70858 3.57541 5.70089 3.48476 5.67545 3.3983C5.65004 3.31185 5.60742 3.23136 5.55013 3.16157C5.49285 3.09179 5.42206 3.03415 5.34194 2.99206C5.26184 2.94998 5.17404 2.9243 5.08378 2.91655C4.99349 2.90882 4.90258 2.91916 4.81641 2.94698C4.73024 2.97481 4.65055 3.01955 4.58209 3.07854C4.113 3.45977 3.74467 3.81516 3.4305 4.25454C3.28077 4.46564 3.1468 4.68736 3.02967 4.91792L2.72959 4.64223C2.59675 4.52954 2.42524 4.47223 2.25091 4.48227C2.07656 4.49232 1.91287 4.56894 1.79401 4.69612C1.67516 4.82331 1.61033 4.99124 1.61308 5.16482C1.61582 5.3384 1.68593 5.5042 1.80875 5.62762L2.80434 6.54946C2.88539 6.62444 2.98372 6.6785 3.09068 6.70693C3.19765 6.73536 3.31002 6.73728 3.41789 6.71251C3.52579 6.68774 3.62592 6.63706 3.70951 6.56488C3.79312 6.49271 3.85764 6.40126 3.89742 6.29854C4.12167 5.72023 4.31234 5.34331 4.53334 5.03423C4.75217 4.72839 5.02084 4.45916 5.43792 4.121ZM5.43792 8.46639C5.50979 8.41153 5.56985 8.34288 5.61455 8.26455C5.65925 8.18619 5.68765 8.09972 5.69812 8.01024C5.70858 7.9208 5.70089 7.83014 5.67545 7.74368C5.65004 7.65723 5.60742 7.57674 5.55013 7.50696C5.49285 7.43717 5.42206 7.37953 5.34194 7.33745C5.26184 7.29536 5.17404 7.26969 5.08378 7.26193C4.99349 7.2542 4.90258 7.26454 4.81641 7.29237C4.73024 7.3202 4.65055 7.36493 4.58209 7.42392C4.113 7.80516 3.74467 8.16054 3.4305 8.601C3.28081 8.81176 3.14684 9.03311 3.02967 9.26331L2.73067 8.98762C2.66645 8.92309 2.58975 8.87213 2.50521 8.83784C2.42066 8.80353 2.33001 8.78658 2.23869 8.788C2.14739 8.78944 2.05732 8.80921 1.9739 8.84613C1.89048 8.88307 1.81543 8.9364 1.75328 9.00291C1.69113 9.0694 1.64316 9.14773 1.61224 9.23316C1.58133 9.31856 1.56812 9.40932 1.5734 9.49993C1.57868 9.59056 1.60235 9.6792 1.64298 9.76048C1.68362 9.84179 1.74037 9.91407 1.80984 9.973L2.80542 10.8948C2.88648 10.9698 2.9848 11.0239 3.09177 11.0523C3.19874 11.0807 3.3111 11.0827 3.41898 11.0579C3.52688 11.0331 3.627 10.9824 3.71059 10.9103C3.7942 10.8381 3.85872 10.7466 3.8985 10.6439C4.12275 10.0656 4.31342 9.68977 4.53442 9.38069C4.75325 9.07377 5.02192 8.80454 5.439 8.46531L5.43792 8.46639ZM6.98492 5.367C6.98492 4.99546 7.28825 4.69393 7.662 4.69393H10.3703C10.5499 4.69393 10.7221 4.76483 10.8491 4.89107C10.9761 5.01728 11.0474 5.18849 11.0474 5.367C11.0474 5.54551 10.9761 5.7167 10.8491 5.84294C10.7221 5.96915 10.5499 6.04008 10.3703 6.04008H7.662C7.48243 6.04008 7.3102 5.96915 7.18324 5.84294C7.05625 5.7167 6.98492 5.54551 6.98492 5.367ZM7.662 9.27623C7.48243 9.27623 7.3102 9.34714 7.18324 9.47337C7.05625 9.59959 6.98492 9.7708 6.98492 9.94931C6.98492 10.1278 7.05625 10.299 7.18324 10.4252C7.3102 10.5515 7.48243 10.6224 7.662 10.6224H10.3703C10.5499 10.6224 10.7221 10.5515 10.8491 10.4252C10.9761 10.299 11.0474 10.1278 11.0474 9.94931C11.0474 9.7708 10.9761 9.59959 10.8491 9.47337C10.7221 9.34714 10.5499 9.27623 10.3703 9.27623H7.662Z" fill="#E1BEE7"/>
</g>
<defs>
<clipPath id="clip0_1194_7">
<rect width="13" height="14" fill="white"/>
</clipPath>
</defs>
</svg>
