<svg width="14" height="14" viewBox="0 0 14 14" fill="none" xmlns="http://www.w3.org/2000/svg">
<path d="M1.20987 10.5185C1.364 11.9592 2.5227 13.1179 3.96266 13.2784C5.03221 13.3976 6.13037 13.5 7.25 13.5C8.36963 13.5 9.46779 13.3976 10.5373 13.2784C11.9773 13.1179 13.136 11.9592 13.2901 10.5185C13.4039 9.45502 13.5 8.36315 13.5 7.25C13.5 6.13684 13.4039 5.04498 13.2901 3.98147C13.136 2.54082 11.9773 1.38211 10.5373 1.22161C9.46779 1.10239 8.36963 1 7.25 1C6.13037 1 5.03221 1.10239 3.96266 1.22161C2.5227 1.38211 1.364 2.54082 1.20987 3.98147C1.09608 5.04498 1 6.13684 1 7.25C1 8.36315 1.09608 9.45502 1.20987 10.5185Z" stroke="black" stroke-linecap="round" stroke-linejoin="round" stroke-dasharray="1 2.7"/>
</svg>
