<svg width="68" height="68" viewBox="0 0 68 68" fill="none" xmlns="http://www.w3.org/2000/svg">
<path fill-rule="evenodd" clip-rule="evenodd" d="M33.7495 7.29297C28.0105 7.29297 22.7184 7.41777 17.5358 7.65802C8.88925 8.05892 1.85456 14.6354 0.88113 22.9956C-0.29371 33.0856 -0.29371 41.7085 0.88113 51.7986C1.85456 60.1586 8.88925 66.7351 17.5358 67.1361C22.7184 67.3761 28.0105 67.5011 33.7495 67.5011C39.4885 67.5011 44.7806 67.3761 49.963 67.1361C58.61 66.7351 65.6445 60.1586 66.618 51.7986C67.7925 41.7085 67.7925 33.0856 66.618 22.9956C65.6445 14.6354 58.61 8.05892 49.9635 7.65802C44.7806 7.41777 39.4885 7.29297 33.7495 7.29297Z" fill="#7985CB"/>
<path fill-rule="evenodd" clip-rule="evenodd" d="M23.7578 3.75C23.7578 1.67893 22.0789 0 20.0078 0C17.9368 0 16.2578 1.67893 16.2578 3.75V15C16.2578 17.071 17.9368 18.75 20.0078 18.75C22.0789 18.75 23.7578 17.071 23.7578 15V3.75ZM51.2381 3.75C51.2381 1.67893 49.5596 0 47.4883 0C45.4172 0 43.7383 1.67893 43.7383 3.75V15C43.7383 17.071 45.4172 18.75 47.4883 18.75C49.5596 18.75 51.2381 17.071 51.2381 15V3.75Z" fill="#7985CB"/>
<path fill-rule="evenodd" clip-rule="evenodd" d="M19.5312 29.543C17.8053 29.543 16.4062 30.9421 16.4062 32.668C16.4062 34.3938 17.8053 35.793 19.5312 35.793H47.9688C49.6945 35.793 51.094 34.3938 51.094 32.668C51.094 30.9421 49.6945 29.543 47.9688 29.543H19.5312ZM19.5312 44.543C17.8053 44.543 16.4062 45.9421 16.4062 47.668C16.4062 49.3938 17.8053 50.7928 19.5312 50.7928H33.75C35.4759 50.7928 36.875 49.3938 36.875 47.668C36.875 45.9421 35.4759 44.543 33.75 44.543H19.5312Z" fill="white"/>
</svg>
