<svg width="70" height="70" viewBox="0 0 70 70" fill="none" xmlns="http://www.w3.org/2000/svg">
<path fill-rule="evenodd" clip-rule="evenodd" d="M34.9995 8.54297C29.2605 8.54297 23.9684 8.66777 18.7858 8.90802C10.1392 9.30892 3.10456 15.8854 2.13113 24.2456C0.95629 34.3356 0.95629 42.9585 2.13113 53.0486C3.10456 61.4086 10.1392 67.9851 18.7858 68.3861C23.9684 68.6261 29.2605 68.7511 34.9995 68.7511C40.7385 68.7511 46.0306 68.6261 51.213 68.3861C59.86 67.9851 66.8945 61.4086 67.868 53.0486C69.0425 42.9585 69.0425 34.3356 67.868 24.2456C66.8945 15.8854 59.86 9.30892 51.2135 8.90802C46.0306 8.66777 40.7385 8.54297 34.9995 8.54297Z" fill="#D3D3D3"/>
<path fill-rule="evenodd" clip-rule="evenodd" d="M25.0078 5C25.0078 2.92893 23.3289 1.25 21.2578 1.25C19.1868 1.25 17.5078 2.92893 17.5078 5V16.25C17.5078 18.321 19.1868 20 21.2578 20C23.3289 20 25.0078 18.321 25.0078 16.25V5ZM52.4881 5C52.4881 2.92893 50.8096 1.25 48.7383 1.25C46.6672 1.25 44.9883 2.92893 44.9883 5V16.25C44.9883 18.321 46.6672 20 48.7383 20C50.8096 20 52.4881 18.321 52.4881 16.25V5Z" fill="#D3D3D3"/>
<path fill-rule="evenodd" clip-rule="evenodd" d="M48.2431 26.479C44.7014 23.3463 39.3453 23.2466 36.3188 26.6807L21.0613 43.9929C20.91 44.1646 20.8055 44.3723 20.7579 44.5961L18.6677 54.4272C18.3837 55.7627 18.9507 56.9918 19.7982 57.7613C20.6457 58.5308 21.9234 58.9762 23.2254 58.5667L33.0087 55.4912C33.2241 55.4232 33.4187 55.3018 33.5743 55.1383L49.3336 38.5558C52.5655 35.1553 51.867 29.6843 48.2431 26.479Z" fill="#E5E5E5"/>
</svg>
