<svg width="68" height="68" viewBox="0 0 68 68" fill="none" xmlns="http://www.w3.org/2000/svg">
<path fill-rule="evenodd" clip-rule="evenodd" d="M33.7495 7.29297C28.0105 7.29297 22.7184 7.41777 17.5358 7.65802C8.88925 8.05892 1.85456 14.6354 0.88113 22.9956C-0.29371 33.0856 -0.29371 41.7085 0.88113 51.7986C1.85456 60.1586 8.88925 66.7351 17.5358 67.1361C22.7184 67.3761 28.0105 67.5011 33.7495 67.5011C39.4885 67.5011 44.7806 67.3761 49.963 67.1361C58.61 66.7351 65.6445 60.1586 66.618 51.7986C67.7925 41.7085 67.7925 33.0856 66.618 22.9956C65.6445 14.6354 58.61 8.05892 49.9635 7.65802C44.7806 7.41777 39.4885 7.29297 33.7495 7.29297Z" fill="#7985CB"/>
<path fill-rule="evenodd" clip-rule="evenodd" d="M23.7578 3.75C23.7578 1.67893 22.0789 0 20.0078 0C17.9368 0 16.2578 1.67893 16.2578 3.75V15C16.2578 17.071 17.9368 18.75 20.0078 18.75C22.0789 18.75 23.7578 17.071 23.7578 15V3.75ZM51.2381 3.75C51.2381 1.67893 49.5596 0 47.4883 0C45.4172 0 43.7383 1.67893 43.7383 3.75V15C43.7383 17.071 45.4172 18.75 47.4883 18.75C49.5596 18.75 51.2381 17.071 51.2381 15V3.75Z" fill="#7985CB"/>
<path fill-rule="evenodd" clip-rule="evenodd" d="M46.9931 25.229C43.4514 22.0963 38.0953 21.9966 35.0688 25.4307L19.8113 42.7429C19.66 42.9146 19.5555 43.1223 19.5079 43.3461L17.4177 53.1772C17.1337 54.5127 17.7007 55.7418 18.5482 56.5113C19.3957 57.2808 20.6734 57.7262 21.9754 57.3167L31.7587 54.2412C31.9741 54.1732 32.1687 54.0518 32.3243 53.8883L48.0836 37.3058C51.3155 33.9053 50.617 28.4343 46.9931 25.229Z" fill="white"/>
</svg>
