<svg width="70" height="70" viewBox="0 0 70 70" fill="none" xmlns="http://www.w3.org/2000/svg">
<path fill-rule="evenodd" clip-rule="evenodd" d="M35 2.5C28.16 2.5 22.63 2.705 16.905 3.1C13.9723 3.2992 11.2121 4.55786 9.13861 6.64143C7.06516 8.725 5.81995 11.4914 5.63503 14.425C5.20884 21.275 4.99707 28.1367 5.00003 35C5.00003 42.05 5.22003 48.93 5.63503 55.575C5.81995 58.5086 7.06516 61.275 9.13861 63.3586C11.2121 65.4421 13.9723 66.7008 16.905 66.9C22.63 67.295 28.155 67.5 35 67.5C41.84 67.5 47.37 67.295 53.095 66.9C56.0277 66.7008 58.788 65.4421 60.8614 63.3586C62.9349 61.275 64.1801 58.5086 64.365 55.575C64.9694 45.9042 65.1462 36.2114 64.895 26.525C64.8379 24.0632 64.0283 21.6779 62.575 19.69C58.055 13.535 54.395 9.635 48.415 5.02C46.3985 3.47488 43.9401 2.61627 41.4 2.57C39.267 2.52331 37.1336 2.49998 35 2.5Z" fill="#D3D3D3"/>
<path fill-rule="evenodd" clip-rule="evenodd" d="M30.0993 21.631C30.431 21.3763 30.7082 21.0576 30.9145 20.6939C31.1208 20.3301 31.2519 19.9286 31.3002 19.5132C31.3485 19.0979 31.313 18.677 31.1956 18.2756C31.0783 17.8742 30.8816 17.5005 30.6172 17.1765C30.3528 16.8525 30.0261 16.5849 29.6563 16.3895C29.2866 16.1941 28.8814 16.0749 28.4648 16.0389C28.0481 16.003 27.6285 16.051 27.2308 16.1802C26.8331 16.3094 26.4653 16.5171 26.1493 16.791C23.9843 18.561 22.2843 20.211 20.8343 22.251C20.1432 23.2311 19.5249 24.2605 18.9843 25.331L17.5993 24.051C16.9862 23.5278 16.1946 23.2617 15.39 23.3083C14.5853 23.355 13.8298 23.7107 13.2813 24.3012C12.7327 24.8917 12.4335 25.6714 12.4462 26.4773C12.4589 27.2832 12.7824 28.053 13.3493 28.626L17.9443 32.906C18.3184 33.2541 18.7722 33.5051 19.2659 33.6371C19.7596 33.7691 20.2782 33.778 20.7761 33.663C21.2741 33.548 21.7362 33.3127 22.122 32.9776C22.5079 32.6425 22.8057 32.2179 22.9893 31.741C24.0243 29.056 24.9043 27.306 25.9243 25.871C26.9343 24.451 28.1743 23.201 30.0993 21.631ZM30.0993 41.806C30.431 41.5513 30.7082 41.2326 30.9145 40.8689C31.1208 40.5051 31.2519 40.1036 31.3002 39.6882C31.3485 39.2729 31.313 38.852 31.1956 38.4506C31.0783 38.0492 30.8816 37.6755 30.6172 37.3515C30.3528 37.0275 30.0261 36.7599 29.6563 36.5645C29.2866 36.3691 28.8814 36.2499 28.4648 36.2139C28.0481 36.178 27.6285 36.226 27.2308 36.3552C26.8331 36.4844 26.4653 36.6921 26.1493 36.966C23.9843 38.736 22.2843 40.386 20.8343 42.431C20.1434 43.4095 19.5251 44.4372 18.9843 45.506L17.6043 44.226C17.3079 43.9264 16.9539 43.6898 16.5637 43.5306C16.1735 43.3713 15.7551 43.2926 15.3336 43.2992C14.9122 43.3059 14.4965 43.3977 14.1115 43.5691C13.7265 43.7406 13.3801 43.9882 13.0933 44.297C12.8064 44.6057 12.585 44.9694 12.4423 45.366C12.2996 45.7625 12.2387 46.1839 12.263 46.6046C12.2874 47.0254 12.3967 47.4369 12.5842 47.8143C12.7717 48.1918 13.0337 48.5274 13.3543 48.801L17.9493 53.081C18.3234 53.4291 18.7772 53.6801 19.2709 53.8121C19.7646 53.9441 20.2832 53.953 20.7811 53.838C21.2791 53.723 21.7412 53.4877 22.127 53.1526C22.5129 52.8175 22.8107 52.3929 22.9943 51.916C24.0293 49.231 24.9093 47.486 25.9293 46.051C26.9393 44.626 28.1793 43.376 30.1043 41.801L30.0993 41.806ZM37.2393 27.416C37.2393 25.691 38.6393 24.291 40.3643 24.291H52.8643C53.6931 24.291 54.488 24.6202 55.074 25.2063C55.6601 25.7923 55.9893 26.5872 55.9893 27.416C55.9893 28.2448 55.6601 29.0396 55.074 29.6257C54.488 30.2117 53.6931 30.541 52.8643 30.541H40.3643C39.5355 30.541 38.7406 30.2117 38.1546 29.6257C37.5685 29.0396 37.2393 28.2448 37.2393 27.416ZM40.3643 45.566C39.5355 45.566 38.7406 45.8952 38.1546 46.4813C37.5685 47.0673 37.2393 47.8622 37.2393 48.691C37.2393 49.5198 37.5685 50.3146 38.1546 50.9007C38.7406 51.4867 39.5355 51.816 40.3643 51.816H52.8643C53.6931 51.816 54.488 51.4867 55.074 50.9007C55.6601 50.3146 55.9893 49.5198 55.9893 48.691C55.9893 47.8622 55.6601 47.0673 55.074 46.4813C54.488 45.8952 53.6931 45.566 52.8643 45.566H40.3643Z" fill="#E5E5E5"/>
</svg>
